<svg xmlns="http://www.w3.org/2000/svg" width="1200" height="675" viewBox="0 0 1200 675" role="img" aria-labelledby="title"><title id="title">Galvanized steel products from the Chelyabinsk Zinc Plant</title><rect x="0" y="0" width="1200" height="675" rx="0" fill="#e1d9ed"/><circle cx="1050" cy="100" r="76" fill="#e8bd72"/><path d="M80 600L1120 600" stroke="#352b49" stroke-width="3" fill="none"/><path d="M190 210L350 455L455 410L295 165Z" fill="#e8bd72" stroke="#352b49" stroke-width="6"/><ellipse cx="243" cy="188" rx="61" ry="32" transform="rotate(-23 243 188)" fill="#352b49"/><ellipse cx="243" cy="188" rx="43" ry="19" transform="rotate(-23 243 188)" fill="#e1d9ed"/><path d="M335 285L495 530L600 485L440 240Z" fill="#b8a0d2" stroke="#352b49" stroke-width="6"/><ellipse cx="388" cy="263" rx="61" ry="32" transform="rotate(-23 388 263)" fill="#352b49"/><ellipse cx="388" cy="263" rx="43" ry="19" transform="rotate(-23 388 263)" fill="#e1d9ed"/><path d="M480 210L640 455L745 410L585 165Z" fill="#e8bd72" stroke="#352b49" stroke-width="6"/><ellipse cx="533" cy="188" rx="61" ry="32" transform="rotate(-23 533 188)" fill="#352b49"/><ellipse cx="533" cy="188" rx="43" ry="19" transform="rotate(-23 533 188)" fill="#e1d9ed"/><path d="M625 285L785 530L890 485L730 240Z" fill="#b8a0d2" stroke="#352b49" stroke-width="6"/><ellipse cx="678" cy="263" rx="61" ry="32" transform="rotate(-23 678 263)" fill="#352b49"/><ellipse cx="678" cy="263" rx="43" ry="19" transform="rotate(-23 678 263)" fill="#e1d9ed"/><path d="M770 210L930 455L1035 410L875 165Z" fill="#e8bd72" stroke="#352b49" stroke-width="6"/><ellipse cx="823" cy="188" rx="61" ry="32" transform="rotate(-23 823 188)" fill="#352b49"/><ellipse cx="823" cy="188" rx="43" ry="19" transform="rotate(-23 823 188)" fill="#e1d9ed"/><path d="M180 575L1050 575" stroke="#352b49" stroke-width="10" fill="none"/></svg>
