<svg xmlns="http://www.w3.org/2000/svg" width="1200" height="675" viewBox="0 0 1200 675" role="img" aria-labelledby="title"><title id="title">Southern Russia power system under heatwave demand and record wholesale prices</title><rect x="0" y="0" width="1200" height="675" rx="0" fill="#e1d9ed"/><circle cx="1050" cy="100" r="67" fill="#e8bd72"/><path d="M80 600L1120 600" stroke="#352b49" stroke-width="3" fill="none"/><path d="M240 290L240 560" stroke="#352b49" stroke-width="8" fill="none"/><circle cx="240" cy="290" r="18" fill="#352b49"/><path d="M240 290L222 135L252 120Z" fill="#b8a0d2" transform="rotate(27 240 290)"/><path d="M240 290L222 135L252 120Z" fill="#b8a0d2" transform="rotate(147 240 290)"/><path d="M240 290L222 135L252 120Z" fill="#b8a0d2" transform="rotate(267 240 290)"/><path d="M600 290L600 560" stroke="#352b49" stroke-width="8" fill="none"/><circle cx="600" cy="290" r="18" fill="#352b49"/><path d="M600 290L582 135L612 120Z" fill="#b8a0d2" transform="rotate(27 600 290)"/><path d="M600 290L582 135L612 120Z" fill="#b8a0d2" transform="rotate(147 600 290)"/><path d="M600 290L582 135L612 120Z" fill="#b8a0d2" transform="rotate(267 600 290)"/><path d="M960 290L960 560" stroke="#352b49" stroke-width="8" fill="none"/><circle cx="960" cy="290" r="18" fill="#352b49"/><path d="M960 290L942 135L972 120Z" fill="#b8a0d2" transform="rotate(27 960 290)"/><path d="M960 290L942 135L972 120Z" fill="#b8a0d2" transform="rotate(147 960 290)"/><path d="M960 290L942 135L972 120Z" fill="#b8a0d2" transform="rotate(267 960 290)"/></svg>
